<svg width="20" height="20" viewBox="0 0 20 20" fill="none" xmlns="http://www.w3.org/2000/svg">
<g clip-path="url(#clip0_232_464)">
<path d="M18.7501 12.9166C18.4186 12.9166 18.1006 13.0483 17.8662 13.2827C17.6318 13.5172 17.5001 13.8351 17.5001 14.1666V15.4166C17.5001 15.9692 17.2806 16.4991 16.8899 16.8898C16.4992 17.2805 15.9693 17.5 15.4167 17.5H14.1667C13.8352 17.5 13.5173 17.6317 13.2829 17.8661C13.0484 18.1005 12.9167 18.4184 12.9167 18.75C12.9167 19.0815 13.0484 19.3994 13.2829 19.6338C13.5173 19.8683 13.8352 20 14.1667 20H15.4167C16.6319 19.9986 17.7969 19.5153 18.6562 18.6561C19.5154 17.7968 19.9988 16.6318 20.0001 15.4166V14.1666C20.0001 13.8351 19.8684 13.5172 19.634 13.2827C19.3995 13.0483 19.0816 12.9166 18.7501 12.9166Z" fill="#151810"/>
<path d="M5.83333 0H4.58333C3.36816 0.00132347 2.20314 0.484634 1.34389 1.34389C0.484634 2.20314 0.00132347 3.36816 0 4.58333L0 5.83333C0 6.16485 0.131696 6.4828 0.366117 6.71722C0.600537 6.95164 0.918479 7.08333 1.25 7.08333C1.58152 7.08333 1.89946 6.95164 2.13388 6.71722C2.3683 6.4828 2.5 6.16485 2.5 5.83333V4.58333C2.5 4.0308 2.71949 3.5009 3.11019 3.11019C3.5009 2.71949 4.0308 2.5 4.58333 2.5H5.83333C6.16485 2.5 6.4828 2.3683 6.71722 2.13388C6.95164 1.89946 7.08333 1.58152 7.08333 1.25C7.08333 0.918479 6.95164 0.600537 6.71722 0.366117C6.4828 0.131696 6.16485 0 5.83333 0Z" fill="#151810"/>
<path d="M5.83333 17.5H4.58333C4.0308 17.5 3.5009 17.2805 3.11019 16.8898C2.71949 16.4991 2.5 15.9692 2.5 15.4166V14.1666C2.5 13.8351 2.3683 13.5172 2.13388 13.2827C1.89946 13.0483 1.58152 12.9166 1.25 12.9166C0.918479 12.9166 0.600537 13.0483 0.366117 13.2827C0.131696 13.5172 0 13.8351 0 14.1666L0 15.4166C0.00132347 16.6318 0.484634 17.7968 1.34389 18.6561C2.20314 19.5153 3.36816 19.9986 4.58333 20H5.83333C6.16485 20 6.4828 19.8683 6.71722 19.6338C6.95164 19.3994 7.08333 19.0815 7.08333 18.75C7.08333 18.4184 6.95164 18.1005 6.71722 17.8661C6.4828 17.6317 6.16485 17.5 5.83333 17.5Z" fill="#151810"/>
<path d="M15.4167 0H14.1667C13.8352 0 13.5173 0.131696 13.2829 0.366117C13.0484 0.600537 12.9167 0.918479 12.9167 1.25C12.9167 1.58152 13.0484 1.89946 13.2829 2.13388C13.5173 2.3683 13.8352 2.5 14.1667 2.5H15.4167C15.9693 2.5 16.4992 2.71949 16.8899 3.11019C17.2806 3.5009 17.5001 4.0308 17.5001 4.58333V5.83333C17.5001 6.16485 17.6318 6.4828 17.8662 6.71722C18.1006 6.95164 18.4186 7.08333 18.7501 7.08333C19.0816 7.08333 19.3995 6.95164 19.634 6.71722C19.8684 6.4828 20.0001 6.16485 20.0001 5.83333V4.58333C19.9988 3.36816 19.5154 2.20314 18.6562 1.34389C17.7969 0.484634 16.6319 0.00132347 15.4167 0Z" fill="#151810"/>
</g>
<defs>
<clipPath id="clip0_232_464">
<rect width="20" height="20" fill="white"/>
</clipPath>
</defs>
</svg>
