<svg width="24" height="24" viewBox="0 0 24 24" fill="none" xmlns="http://www.w3.org/2000/svg">
<g clip-path="url(#clip0_8_10793)">
<path d="M23.2668 9.40753C22.3644 7.92978 21.2261 6.6098 19.8971 5.49998L22.696 2.70104C23.0796 2.30392 23.0685 1.67111 22.6714 1.28758C22.284 0.913419 21.6699 0.913419 21.2825 1.28758L18.2386 4.33543C16.3517 3.21469 14.1946 2.63052 12 2.64607C5.81126 2.64607 2.28457 6.88252 0.733158 9.40758C-0.244386 10.9887 -0.244386 12.9865 0.733158 14.5677C1.63559 16.0454 2.7739 17.3654 4.10292 18.4752L1.30398 21.2742C0.906859 21.6577 0.895847 22.2906 1.27938 22.6876C1.66291 23.0848 2.29577 23.0958 2.69284 22.7122C2.70118 22.7042 2.70938 22.696 2.71744 22.6876L5.76829 19.6368C7.65285 20.7574 9.80746 21.3425 12 21.3291C18.1887 21.3291 21.7154 17.0927 23.2668 14.5676C24.2444 12.9865 24.2444 10.9887 23.2668 9.40753ZM6.00225 11.9876C5.99658 8.68063 8.67276 5.99522 11.9797 5.98955C13.231 5.98739 14.4515 6.3773 15.4697 7.10443L14.0183 8.55589C13.4089 8.18844 12.7116 7.99257 12 7.9891C9.79172 7.9891 8.00152 9.7793 8.00152 11.9876C8.00499 12.6991 8.20086 13.3965 8.56831 14.0059L7.11685 15.4573C6.39206 14.4455 6.0023 13.2322 6.00225 11.9876ZM12 17.9854C10.7554 17.9853 9.54211 17.5956 8.53031 16.8708L9.98177 15.4193C10.5911 15.7868 11.2885 15.9826 12 15.9861C14.2083 15.9861 15.9985 14.1959 15.9985 11.9876C15.9951 11.2761 15.7992 10.5787 15.4317 9.96935L16.8832 8.51789C18.805 11.2091 18.1812 14.9487 15.49 16.8705C14.4718 17.5976 13.2513 17.9875 12 17.9854Z" fill="#374957"/>
</g>
<defs>
<clipPath id="clip0_8_10793">
<rect width="24" height="24" fill="white"/>
</clipPath>
</defs>
</svg>
