<svg width="300" height="300" viewBox="0 0 300 300" fill="none" xmlns="http://www.w3.org/2000/svg">
<path d="M208.214 156.986C208.214 236.231 139.721 280.968 65.702 280.968C59.3951 263.624 29.1536 216.061 26 167.97C27.5574 143.053 29.2454 127.686 47.378 97.7281C66.299 72.5 118.301 34.6885 145.106 0C157.066 11.9598 186.274 46.1928 200.078 82.4581C209.264 106.591 208.214 125.828 208.214 156.986Z" fill="#FAFBF9"/>
<path fill-rule="evenodd" clip-rule="evenodd" d="M67.6041 261.864C67.6678 271.403 66.326 276.156 65.702 280.968C65.702 280.968 158.421 232.783 197.966 190.098C237.51 147.414 261.158 64.1341 261.158 64.1341C239.78 70.2421 221.456 79.4041 193.97 85.5121C166.484 91.6201 147.979 100.024 134.694 106.435C104.819 124.703 94.2216 139.985 81.3829 161.397C67.1511 193.943 67.4258 235.127 67.6041 261.864Z" fill="#FAFBF9"/>
<path d="M65.702 280.968C131.435 314.998 215.564 305.531 251.996 235.158C266.321 207.488 270.437 187.516 273.374 161.862C277.788 123.31 267.266 70.2421 261.158 64.1341C261.158 64.1341 237.51 147.414 197.966 190.098C158.421 232.783 65.702 280.968 65.702 280.968Z" fill="#FAFBF9"/>
<path d="M201.904 159.306C201.904 230.626 141.514 273.542 74.8962 273.542C69.2199 257.932 38.0002 213.231 35.162 169.949C36.5636 147.524 38.7097 130.925 55.0291 103.962C72.058 81.2571 121.726 46.4897 145.85 15.27C156.614 26.0338 178.837 59.2614 191.26 91.9002C199.528 113.619 201.904 131.264 201.904 159.306Z" fill="#375C0A"/>
<path fill-rule="evenodd" clip-rule="evenodd" d="M75.3543 253.696C75.4116 262.281 75.4578 269.211 74.8962 273.542C74.8962 273.542 157.089 227.523 192.68 189.107C228.27 150.691 257.165 76.8017 257.165 76.8017C238.123 85.6547 212.193 92.0736 188.248 98.0012C167.204 103.211 147.692 108.041 135.736 113.81C108.847 130.251 99.31 144.005 87.7552 163.276C74.9466 192.567 75.1938 229.633 75.3543 253.696Z" fill="#9ECC66"/>
<path d="M74.8962 273.542C134.056 304.169 207.934 293.819 240.723 230.484C253.616 205.58 259.618 188.819 262.261 165.73C266.234 131.034 261.775 91.3091 257.165 76.8017C257.165 76.8017 228.27 150.691 192.68 189.107C157.089 227.523 74.8962 273.542 74.8962 273.542Z" fill="#6EAF1F"/>
</svg>
