<svg width="301" height="301" viewBox="0 0 301 301" fill="none" xmlns="http://www.w3.org/2000/svg">
<g clip-path="url(#clip0_437_848)">
<path d="M207.992 157.21C207.992 235.053 142.079 281.895 69.3684 281.895C63.173 264.857 29.0978 216.068 26 168.827C27.5298 144.35 29.8722 126.233 47.6843 96.8044C66.2707 72.0225 120.481 34.0752 146.812 0C158.56 11.7483 182.816 48.015 196.376 83.639C205.399 107.345 207.992 126.603 207.992 157.21Z" fill="#375C0A"/>
<path fill-rule="evenodd" clip-rule="evenodd" d="M69.8685 260.233C69.931 269.603 69.9814 277.167 69.3684 281.895C69.3684 281.895 159.079 231.666 197.925 189.737C236.77 147.807 268.308 67.1596 268.308 67.1596C247.525 76.8224 219.223 83.8283 193.088 90.2981C170.119 95.984 148.823 101.256 135.773 107.553C106.425 125.498 96.0153 140.51 83.4036 161.543C69.4235 193.514 69.6933 233.97 69.8685 260.233Z" fill="#9ECC66"/>
<path d="M69.3684 281.895C133.939 315.323 214.574 304.026 250.363 234.898C264.434 207.717 270.985 189.422 273.871 164.222C278.207 126.352 273.34 82.9939 268.308 67.1596C268.308 67.1596 236.77 147.807 197.925 189.737C159.079 231.666 69.3684 281.895 69.3684 281.895Z" fill="#6EAF1F"/>
</g>
<defs>
<clipPath id="clip0_437_848">
<rect width="300" height="300" fill="white" transform="translate(0.449585 0.449585)"/>
</clipPath>
</defs>
</svg>
